<svg xmlns="http://www.w3.org/2000/svg" viewBox="0 0 700 140" width="700" height="140" style="font-family:Cambria,serif;font-size:14px">
<text x="350" y="22" font-size="13" font-weight="bold" text-anchor="middle" fill="#333">Which shape is in the 5th position?</text>
<polygon points="250,46 236,69.8 264,69.8" fill="white" stroke="#333" stroke-width="2"/>
<rect x="280.2" y="50.2" width="19.599999999999998" height="19.599999999999998" fill="white" stroke="#333" stroke-width="2"/><line x1="284.4" y1="50.2" x2="284.4" y2="69.8" stroke="#333" stroke-width="1.5"/><line x1="295.6" y1="50.2" x2="295.6" y2="69.8" stroke="#333" stroke-width="1.5"/>
<polygon points="330.0,47.4 333.3,55.5 342.0,56.1 335.3,61.7 337.4,70.2 330.0,65.6 322.6,70.2 324.7,61.7 318.0,56.1 326.7,55.5" fill="white" stroke="#333" stroke-width="2"/>
<polygon points="370.0,47.4 373.3,55.5 382.0,56.1 375.3,61.7 377.4,70.2 370.0,65.6 362.6,70.2 364.7,61.7 358.0,56.1 366.7,55.5" fill="white" stroke="#333" stroke-width="2"/>
<polygon points="410,46 396,69.8 424,69.8" fill="white" stroke="#333" stroke-width="2"/>
<rect x="394" y="44" width="32" height="32" rx="0" fill="none" stroke="#333" stroke-width="1.5"/>
<text x="410" y="90" font-size="12" font-weight="normal" text-anchor="middle" fill="#333">↑</text>
<rect x="310" y="108" width="80" height="26" rx="0" fill="white" stroke="#333" stroke-width="1.5"/>
<text x="350" y="127" font-size="14" font-weight="normal" text-anchor="middle" fill="#333">___</text>
</svg>