<svg xmlns="http://www.w3.org/2000/svg" viewBox="0 0 700 260" width="700" height="260" style="font-family:Cambria,serif;font-size:14px">
<text x="350" y="16" font-size="13" font-weight="bold" text-anchor="middle" fill="#333">Read the tally chart:</text>
<text x="70" y="32" font-size="11" font-weight="bold" text-anchor="start" fill="#333">Fruit</text>
<text x="400" y="32" font-size="11" font-weight="bold" text-anchor="start" fill="#333">Tally</text>
<line x1="60" y1="36" x2="470" y2="36" stroke="#333" stroke-width="1"/>
<text x="70" y="60" font-size="11" font-weight="normal" text-anchor="start" fill="#333">Apples</text>
<line x1="378" y1="60" x2="378" y2="44" stroke="#333" stroke-width="1.5"/>
<line x1="382" y1="60" x2="382" y2="44" stroke="#333" stroke-width="1.5"/>
<line x1="386" y1="60" x2="386" y2="44" stroke="#333" stroke-width="1.5"/>
<line x1="390" y1="60" x2="390" y2="44" stroke="#333" stroke-width="1.5"/>
<line x1="378" y1="44" x2="394" y2="56" stroke="#333" stroke-width="1.5"/>
<text x="450" y="60" font-size="11" font-weight="normal" text-anchor="start" fill="#333">(  )</text>
<line x1="60" y1="68" x2="470" y2="68" stroke="#888" stroke-width="0.5"/>
<text x="70" y="104" font-size="11" font-weight="normal" text-anchor="start" fill="#333">Bananas</text>
<line x1="356" y1="104" x2="356" y2="88" stroke="#333" stroke-width="1.5"/>
<line x1="360" y1="104" x2="360" y2="88" stroke="#333" stroke-width="1.5"/>
<line x1="364" y1="104" x2="364" y2="88" stroke="#333" stroke-width="1.5"/>
<line x1="368" y1="104" x2="368" y2="88" stroke="#333" stroke-width="1.5"/>
<line x1="356" y1="88" x2="372" y2="100" stroke="#333" stroke-width="1.5"/>
<line x1="380" y1="104" x2="380" y2="88" stroke="#333" stroke-width="1.5"/>
<line x1="384" y1="104" x2="384" y2="88" stroke="#333" stroke-width="1.5"/>
<line x1="388" y1="104" x2="388" y2="88" stroke="#333" stroke-width="1.5"/>
<line x1="392" y1="104" x2="392" y2="88" stroke="#333" stroke-width="1.5"/>
<line x1="380" y1="88" x2="396" y2="100" stroke="#333" stroke-width="1.5"/>
<line x1="404" y1="104" x2="404" y2="88" stroke="#333" stroke-width="1.5"/>
<line x1="408" y1="104" x2="408" y2="88" stroke="#333" stroke-width="1.5"/>
<line x1="412" y1="104" x2="412" y2="88" stroke="#333" stroke-width="1.5"/>
<text x="450" y="104" font-size="11" font-weight="normal" text-anchor="start" fill="#333">(  )</text>
<line x1="60" y1="112" x2="470" y2="112" stroke="#888" stroke-width="0.5"/>
<text x="70" y="148" font-size="11" font-weight="normal" text-anchor="start" fill="#333">Oranges</text>
<line x1="344" y1="148" x2="344" y2="132" stroke="#333" stroke-width="1.5"/>
<line x1="348" y1="148" x2="348" y2="132" stroke="#333" stroke-width="1.5"/>
<line x1="352" y1="148" x2="352" y2="132" stroke="#333" stroke-width="1.5"/>
<line x1="356" y1="148" x2="356" y2="132" stroke="#333" stroke-width="1.5"/>
<line x1="344" y1="132" x2="360" y2="144" stroke="#333" stroke-width="1.5"/>
<line x1="368" y1="148" x2="368" y2="132" stroke="#333" stroke-width="1.5"/>
<line x1="372" y1="148" x2="372" y2="132" stroke="#333" stroke-width="1.5"/>
<line x1="376" y1="148" x2="376" y2="132" stroke="#333" stroke-width="1.5"/>
<line x1="380" y1="148" x2="380" y2="132" stroke="#333" stroke-width="1.5"/>
<line x1="368" y1="132" x2="384" y2="144" stroke="#333" stroke-width="1.5"/>
<line x1="392" y1="148" x2="392" y2="132" stroke="#333" stroke-width="1.5"/>
<line x1="396" y1="148" x2="396" y2="132" stroke="#333" stroke-width="1.5"/>
<line x1="400" y1="148" x2="400" y2="132" stroke="#333" stroke-width="1.5"/>
<line x1="404" y1="148" x2="404" y2="132" stroke="#333" stroke-width="1.5"/>
<line x1="392" y1="132" x2="408" y2="144" stroke="#333" stroke-width="1.5"/>
<line x1="416" y1="148" x2="416" y2="132" stroke="#333" stroke-width="1.5"/>
<line x1="420" y1="148" x2="420" y2="132" stroke="#333" stroke-width="1.5"/>
<line x1="424" y1="148" x2="424" y2="132" stroke="#333" stroke-width="1.5"/>
<line x1="428" y1="148" x2="428" y2="132" stroke="#333" stroke-width="1.5"/>
<line x1="416" y1="132" x2="432" y2="144" stroke="#333" stroke-width="1.5"/>
<text x="450" y="148" font-size="11" font-weight="normal" text-anchor="start" fill="#333">(  )</text>
<line x1="60" y1="156" x2="470" y2="156" stroke="#888" stroke-width="0.5"/>
<text x="70" y="192" font-size="11" font-weight="normal" text-anchor="start" fill="#333">Grapes</text>
<line x1="378" y1="192" x2="378" y2="176" stroke="#333" stroke-width="1.5"/>
<line x1="382" y1="192" x2="382" y2="176" stroke="#333" stroke-width="1.5"/>
<line x1="386" y1="192" x2="386" y2="176" stroke="#333" stroke-width="1.5"/>
<line x1="390" y1="192" x2="390" y2="176" stroke="#333" stroke-width="1.5"/>
<line x1="378" y1="176" x2="394" y2="188" stroke="#333" stroke-width="1.5"/>
<text x="450" y="192" font-size="11" font-weight="normal" text-anchor="start" fill="#333">(  )</text>
<line x1="60" y1="200" x2="470" y2="200" stroke="#888" stroke-width="0.5"/>
<text x="350" y="242" font-size="12" font-weight="normal" text-anchor="middle" fill="#333">Which fruit has the most? ___</text>
</svg>